<svg width="60" height="42" viewBox="0 0 60 42" fill="none" xmlns="http://www.w3.org/2000/svg">
<path d="M14.837 42C11.0326 42 7.6087 40.4806 4.56522 37.4419C1.52174 34.2946 0 29.6822 0 23.6047C0 16.6589 1.84783 11.0155 5.54348 6.67441C9.34783 2.2248 14.7283 0 21.6848 0C24.1848 0 26.1413 0.162785 27.5543 0.488363V7.97674C26.0326 7.75968 24.0761 7.65116 21.6848 7.65116C17.9891 7.65116 15 8.89922 12.7174 11.3953C10.5435 13.5659 9.29348 16.4419 8.96739 20.0232C10.3804 18.2868 12.663 17.4186 15.8152 17.4186C19.0761 17.4186 21.8478 18.5581 24.1304 20.8372C26.413 23.0078 27.5543 25.8837 27.5543 29.4651C27.5543 33.155 26.3587 36.1938 23.9674 38.5814C21.5761 40.8605 18.5326 42 14.837 42ZM47.2826 42C43.4783 42 40.0543 40.4806 37.0109 37.4419C33.9674 34.2946 32.4456 29.6822 32.4456 23.6047C32.4456 16.6589 34.2935 11.0155 37.9891 6.67441C41.7935 2.2248 47.1739 0 54.1304 0C56.6304 0 58.587 0.162785 60 0.488363V7.97674C58.4783 7.75968 56.5217 7.65116 54.1304 7.65116C50.4348 7.65116 47.4456 8.89922 45.163 11.3953C42.9891 13.5659 41.7391 16.4419 41.413 20.0232C42.8261 18.2868 45.1087 17.4186 48.2609 17.4186C51.5217 17.4186 54.2935 18.5581 56.5761 20.8372C58.8587 23.0078 60 25.8837 60 29.4651C60 33.155 58.8043 36.1938 56.413 38.5814C54.0217 40.8605 50.9783 42 47.2826 42Z" fill="#FF6347"/>
</svg>
