<svg width="38" height="39" viewBox="0 0 38 39" fill="none" xmlns="http://www.w3.org/2000/svg">
<g id="icon">
<g id="Group">
<path id="Vector" fill-rule="evenodd" clip-rule="evenodd" d="M1.45871 14.5201C1.08913 14.1398 0.859367 13.6744 0.859367 13.1031V10.6726C0.859367 10.0489 1.36141 9.54115 1.97654 9.54115H4.9531V9.09627C4.9531 8.16744 5.70276 7.40726 6.61882 7.40726H9.75849C10.6746 7.40726 11.4243 8.16744 11.4243 9.09627V9.54115H14.4008C15.0159 9.54115 15.5179 10.0489 15.5179 10.6726V13.1031C15.5179 13.6744 15.2882 14.1398 14.9187 14.5201V18.7274C14.9187 19.6158 14.2008 20.3457 13.3226 20.3457H3.05479C2.1765 20.3457 1.45871 19.6158 1.45871 18.7274V14.5201ZM4.06868 10.784H2.08517V13.1031C2.08517 13.3876 2.25173 13.5924 2.46042 13.7661L2.46211 13.7675C2.53765 13.8309 2.61955 13.8888 2.7052 13.9439C3.42827 14.4079 4.89319 14.6678 6.53156 14.7746C6.83441 14.1588 7.46148 13.7343 8.18869 13.7343C8.91544 13.7343 9.54221 14.1583 9.84529 14.7736C11.4864 14.6657 12.9526 14.4051 13.6723 13.9438C13.7578 13.8887 13.8397 13.8308 13.9153 13.7675L13.9169 13.7661C14.1256 13.5924 14.2921 13.3876 14.2921 13.1031V10.784H12.3086V11.8236C12.3086 12.5176 11.7491 13.0849 11.0647 13.0849H5.31257C4.62819 13.0849 4.06868 12.5176 4.06868 11.8236V10.784ZM6.37956 16.0089C4.91855 15.904 3.58671 15.6629 2.68452 15.3083V18.7274C2.68452 18.9335 2.851 19.1028 3.05479 19.1028H13.3226C13.5263 19.1028 13.6929 18.9335 13.6929 18.7274V15.3075C12.7923 15.6605 11.4601 15.902 9.99806 16.0078C9.81863 16.854 9.07725 17.4873 8.18869 17.4873C7.30052 17.4873 6.55937 16.8545 6.37956 16.0089ZM10.1985 9.54115V9.09627C10.1985 8.85095 10.0004 8.65015 9.75849 8.65015H6.61882C6.37687 8.65015 6.17891 8.85095 6.17891 9.09627V9.54115H10.1985ZM11.0828 10.784H5.29449V11.8236C5.29449 11.8337 5.30261 11.842 5.31257 11.842H11.0647C11.0747 11.842 11.0828 11.8337 11.0828 11.8236V10.784ZM7.56369 15.6108C7.56365 15.694 7.57978 15.7764 7.61118 15.8533C7.64258 15.9302 7.68861 16.0001 7.74666 16.059C7.80471 16.1178 7.87362 16.1645 7.94947 16.1963C8.02532 16.2281 8.10661 16.2445 8.18869 16.2444C8.27077 16.2445 8.35205 16.2281 8.42789 16.1963C8.50373 16.1645 8.57264 16.1178 8.63068 16.0589C8.68871 16.0001 8.73475 15.9302 8.76614 15.8533C8.79753 15.7764 8.81367 15.694 8.81363 15.6108C8.81363 15.2619 8.53475 14.9772 8.18869 14.9772C7.84263 14.9772 7.56369 15.2619 7.56369 15.6108ZM35.6189 35.3904H37.3871C37.5496 35.3904 37.7055 35.4559 37.8205 35.5725C37.9354 35.689 38 35.8471 38 36.0119V37.8786C38 38.0434 37.9354 38.2014 37.8205 38.318C37.7055 38.4345 37.5496 38.5 37.3871 38.5H0.612903C0.450351 38.5 0.294457 38.4345 0.179515 38.318C0.0645735 38.2014 0 38.0434 0 37.8786V36.0119C0 35.8471 0.0645735 35.689 0.179515 35.5725C0.294457 35.4559 0.450351 35.3904 0.612903 35.3904H2.38113V27.0535C2.38113 26.8887 2.4457 26.7306 2.56064 26.6141C2.67559 26.4976 2.83148 26.4321 2.99403 26.4321H7.86562C8.02817 26.4321 8.18406 26.4976 8.299 26.6141C8.41395 26.7306 8.47852 26.8887 8.47852 27.0535V35.3904H11.4287V22.0864C11.4287 21.9216 11.4932 21.7635 11.6082 21.647C11.7231 21.5304 11.879 21.465 12.0416 21.465H16.9131C17.0756 21.465 17.2315 21.5304 17.3465 21.647C17.4614 21.7635 17.526 21.9216 17.526 22.0864V35.3904H20.474V16.9019C20.474 16.7371 20.5386 16.579 20.6535 16.4625C20.7685 16.346 20.9244 16.2805 21.0869 16.2805H25.9606C26.1231 16.2805 26.279 16.346 26.394 16.4625C26.5089 16.579 26.5735 16.7371 26.5735 16.9019V35.3904H29.5215V12.2374C29.5215 12.0725 29.5861 11.9145 29.701 11.7979C29.8159 11.6814 29.9718 11.6159 30.1344 11.6159H35.006C35.1685 11.6159 35.3244 11.6814 35.4394 11.7979C35.5543 11.9145 35.6189 12.0725 35.6189 12.2374V35.3904ZM3.60694 35.3904H7.25271V27.675H3.60694V35.3904ZM12.6545 35.3904H16.3002V22.7078H12.6545V35.3904ZM21.6998 35.3904H25.3477V17.5234H21.6998V35.3904ZM30.7473 35.3904H34.3931V12.8588H30.7473V35.3904ZM1.22581 37.2571H36.7742V36.6333H1.22581V37.2571ZM26.2876 11.6043C23.2735 14.1367 19.9725 15.735 16.851 16.7659C16.6964 16.8169 16.5282 16.8035 16.3834 16.7288C16.2385 16.6541 16.1288 16.5241 16.0784 16.3674C15.9736 16.0413 16.1498 15.6903 16.4714 15.5841C19.4429 14.6027 22.5863 13.0877 25.4585 10.6865L24.4202 10.7408C24.2579 10.7492 24.0989 10.692 23.9782 10.5816C23.8575 10.4712 23.785 10.3168 23.7765 10.1522C23.7682 9.9876 23.8247 9.82642 23.9336 9.70405C24.0424 9.58169 24.1948 9.50814 24.3571 9.49959L27.1259 9.35479C27.2169 9.35008 27.3078 9.36598 27.392 9.40134C27.4761 9.4367 27.5514 9.49062 27.6125 9.5592C27.6735 9.62778 27.7187 9.70928 27.7447 9.79779C27.7708 9.88629 27.7771 9.97957 27.7631 10.0708L27.3638 12.6764C27.3387 12.8392 27.251 12.9853 27.1197 13.0826C26.9885 13.1798 26.8246 13.2203 26.664 13.195C26.5034 13.1696 26.3593 13.0807 26.2634 12.9476C26.1675 12.8146 26.1276 12.6484 26.1525 12.4856L26.2876 11.6043ZM30.6347 3.59819L31.5922 1.04444C31.8623 0.318519 32.8809 0.318519 33.151 1.04444L34.1084 3.59819L36.7979 3.73227C37.5697 3.76746 37.8791 4.75299 37.2829 5.23484L35.181 6.94856L35.8872 9.58239C36.0926 10.3291 35.272 10.9379 34.6306 10.516L34.6285 10.5146L32.3717 9.01711L30.1171 10.5146L30.1148 10.516C29.4756 10.9364 28.6563 10.3304 28.8549 9.58597L28.8552 9.58527L29.5622 6.94856L27.4624 5.23648C26.864 4.75299 27.1735 3.76746 27.9426 3.73235L30.6347 3.59819ZM29.0461 4.92669L30.5317 6.13796C30.7979 6.35026 30.906 6.68203 30.8194 7.01559L30.8182 7.02049L30.3168 8.89026L31.9115 7.83116C32.1976 7.63851 32.5438 7.63813 32.8302 7.83008L34.426 8.8891L33.925 7.02049L33.9237 7.01559C33.8371 6.6818 33.9453 6.34995 34.2111 6.13819L35.697 4.92669L33.788 4.83153L33.7867 4.83145C33.4487 4.81389 33.1713 4.61177 33.0503 4.28753L32.3716 2.47718L31.6932 4.28668C31.5719 4.61177 31.2945 4.81389 30.9565 4.83145L30.9552 4.83153L29.0461 4.92669Z" fill="white"/>
</g>
</g>
</svg>
