<svg width="38" height="39" viewBox="0 0 38 39" fill="none" xmlns="http://www.w3.org/2000/svg">
<g id="Group">
<path id="Vector" d="M19 7.40871C12.3328 7.40871 6.90879 12.8328 6.90879 19.5C6.90879 26.1671 12.3329 31.5912 19 31.5912C25.6672 31.5912 31.0913 26.1671 31.0913 19.5C31.0913 12.8328 25.6672 7.40871 19 7.40871ZM26.1787 27.6151C25.4715 28.2416 24.6858 28.7734 23.8413 29.1971V26.5572C23.8413 26.3913 23.7754 26.2322 23.6581 26.1149C23.5408 25.9975 23.3817 25.9316 23.2158 25.9316C23.0499 25.9316 22.8908 25.9975 22.7735 26.1149C22.6562 26.2322 22.5903 26.3913 22.5903 26.5572V29.7284C21.8956 29.9729 21.1777 30.1454 20.4478 30.2432L21.0566 29.5364C21.1158 29.4676 21.1594 29.3868 21.1843 29.2995C21.2091 29.2122 21.2147 29.1205 21.2005 29.0308L20.2884 23.2426C20.3997 23.1397 20.495 23.0207 20.5712 22.8896C20.6691 22.7189 20.7202 22.4701 20.7157 22.2155H22.2782C24.4289 22.2155 26.1787 23.8201 26.1787 25.7924V27.615V27.6151ZM19.4345 22.2155C19.4454 22.2155 19.4549 22.2161 19.4632 22.217C19.465 22.2452 19.4651 22.2752 19.4632 22.2991C19.4319 22.3354 19.3931 22.3645 19.3495 22.3843C19.2624 22.4241 19.1855 22.4835 19.1249 22.5577C19.0643 22.632 19.0216 22.7191 19 22.8125C18.9786 22.7196 18.9362 22.6328 18.8761 22.5588C18.8159 22.4848 18.7397 22.4255 18.6531 22.3855C18.6089 22.3652 18.5695 22.3359 18.5374 22.2994C18.5356 22.2719 18.5358 22.2443 18.5379 22.2169C18.5458 22.216 18.5551 22.2155 18.5656 22.2155L19.4345 22.2155ZM19 23.1035L19.9196 28.9394L19 30.0071L18.0805 28.9394L19 23.1035ZM19 20.9645C17.8827 20.9645 16.9778 20.4154 16.3104 19.3324C15.7437 18.4129 15.4054 17.1605 15.4054 15.9824C15.4054 14.0003 17.018 12.3878 19.0001 12.3878C20.9822 12.3878 22.5948 14.0004 22.5948 15.9824C22.5948 17.9086 21.6189 20.9645 19.0001 20.9645H19ZM17.4299 22.8915C17.5058 23.0219 17.6007 23.1402 17.7117 23.2423L16.7996 29.0309C16.7854 29.1206 16.791 29.2122 16.8158 29.2996C16.8407 29.3869 16.8843 29.4677 16.9435 29.5365L17.5522 30.2433C16.8223 30.1455 16.1044 29.973 15.4097 29.7284V26.5572C15.4097 26.3913 15.3438 26.2322 15.2265 26.1149C15.1092 25.9976 14.9501 25.9317 14.7842 25.9317C14.6183 25.9317 14.4592 25.9976 14.3419 26.1149C14.2246 26.2322 14.1587 26.3913 14.1587 26.5572V29.1971C13.3142 28.7735 12.5285 28.2417 11.8213 27.6151V25.7925C11.8213 23.8202 13.5711 22.2156 15.7218 22.2156H17.2855C17.2807 22.4713 17.3319 22.7207 17.4298 22.8916L17.4299 22.8915ZM27.4297 26.3071V25.7925C27.4297 23.1304 25.1187 20.9645 22.2782 20.9645H21.9919C22.2551 20.6998 22.498 20.3948 22.7176 20.0496C23.4345 18.9226 23.8457 17.4401 23.8457 15.9824C23.8457 13.3105 21.672 11.1368 19 11.1368C16.3281 11.1368 14.1543 13.3105 14.1543 15.9824C14.1543 17.3826 14.5622 18.8802 15.2453 19.9888C15.4734 20.3589 15.7275 20.6844 16.005 20.9645H15.7219C12.8813 20.9645 10.5704 23.1304 10.5704 25.7925V26.3071C9.06376 24.445 8.15981 22.0762 8.15981 19.5C8.15981 13.5226 13.0227 8.65974 19 8.65974C24.9774 8.65974 29.8403 13.5226 29.8403 19.5C29.8403 22.0762 28.9363 24.445 27.4297 26.3071ZM5.20036 20.1255H2.2821L2.5639 20.3737C2.62647 20.4277 2.67772 20.4936 2.71467 20.5676C2.75163 20.6415 2.77356 20.7221 2.7792 20.8045C2.78484 20.887 2.77407 20.9698 2.74752 21.0481C2.72098 21.1264 2.67917 21.1986 2.62453 21.2607C2.56989 21.3227 2.5035 21.3733 2.42919 21.4095C2.35487 21.4457 2.27412 21.4668 2.19159 21.4717C2.10907 21.4765 2.0264 21.4649 1.94838 21.4376C1.87036 21.4102 1.79853 21.3677 1.73704 21.3125L0.212121 19.9693C0.145462 19.9106 0.0920677 19.8384 0.0554925 19.7575C0.0189172 19.6766 0 19.5888 0 19.5C0 19.4111 0.0189172 19.3234 0.0554925 19.2424C0.0920677 19.1615 0.145462 19.0893 0.212121 19.0306L1.73704 17.6874C1.86153 17.5777 2.02448 17.522 2.19005 17.5325C2.35562 17.5429 2.51025 17.6188 2.61992 17.7432C2.72959 17.8677 2.78531 18.0307 2.77483 18.1963C2.76436 18.3618 2.68854 18.5165 2.56405 18.6261L2.2821 18.8744H5.20043C5.36633 18.8744 5.52543 18.9403 5.64274 19.0577C5.76005 19.175 5.82595 19.3341 5.82595 19.5C5.82595 19.6659 5.76005 19.825 5.64274 19.9423C5.52543 20.0596 5.36625 20.1255 5.20036 20.1255ZM9.68544 28.8145C9.74354 28.8726 9.78962 28.9415 9.82106 29.0174C9.8525 29.0933 9.86869 29.1746 9.86869 29.2568C9.86869 29.3389 9.8525 29.4202 9.82106 29.4961C9.78962 29.572 9.74354 29.641 9.68544 29.699L7.62078 31.7637L7.99562 31.7399C8.34075 31.7172 8.63755 31.9798 8.65944 32.3246C8.66464 32.4066 8.65364 32.4888 8.62707 32.5665C8.60049 32.6443 8.55887 32.716 8.50458 32.7776C8.45028 32.8393 8.38438 32.8896 8.31063 32.9258C8.23688 32.962 8.15672 32.9833 8.07475 32.9885L6.04667 33.117C5.95804 33.1226 5.86923 33.1093 5.78614 33.0779C5.70305 33.0466 5.6276 32.9979 5.5648 32.9351C5.50201 32.8723 5.45331 32.7968 5.42195 32.7137C5.39059 32.6306 5.37729 32.5418 5.38293 32.4532L5.51147 30.4251C5.53328 30.0803 5.83079 29.8182 6.1753 29.8404C6.25728 29.8456 6.33743 29.8669 6.41118 29.9031C6.48493 29.9392 6.55083 29.9896 6.60513 30.0512C6.65942 30.1129 6.70105 30.1846 6.72762 30.2623C6.75419 30.34 6.76519 30.4222 6.75999 30.5042L6.73623 30.8791L8.80089 28.8144C8.91819 28.6971 9.07728 28.6312 9.24317 28.6312C9.40905 28.6312 9.56814 28.6972 9.68544 28.8145ZM28.3146 10.1854C28.2565 10.1273 28.2104 10.0583 28.1789 9.98246C28.1475 9.90657 28.1313 9.82523 28.1313 9.74309C28.1313 9.66094 28.1475 9.57961 28.1789 9.50372C28.2104 9.42783 28.2565 9.35888 28.3146 9.30081L30.3792 7.23615L30.0044 7.25992C29.6606 7.28228 29.3624 7.02003 29.3406 6.67522C29.3354 6.59324 29.3464 6.51104 29.3729 6.43331C29.3995 6.35558 29.4411 6.28385 29.4954 6.22221C29.5497 6.16057 29.6156 6.11022 29.6894 6.07405C29.7631 6.03788 29.8433 6.01659 29.9253 6.01139L31.9533 5.88285C32.042 5.87719 32.1308 5.89049 32.2139 5.92185C32.297 5.95321 32.3725 6.00191 32.4353 6.06472C32.4981 6.12753 32.5468 6.203 32.5782 6.2861C32.6095 6.3692 32.6228 6.45803 32.6171 6.54667L32.4886 8.57475C32.4781 8.7403 32.4022 8.89489 32.2777 9.00453C32.1533 9.11417 31.9903 9.1699 31.8248 9.15944C31.7428 9.15425 31.6626 9.13296 31.5889 9.09678C31.5151 9.06061 31.4492 9.01027 31.3949 8.94863C31.3407 8.88698 31.299 8.81525 31.2725 8.73752C31.2459 8.6598 31.2349 8.5776 31.2401 8.49562L31.2639 8.12078L29.1992 10.1854C29.0771 10.3076 28.917 10.3686 28.7569 10.3686C28.5967 10.3686 28.4367 10.3075 28.3146 10.1854ZM17.1875 2.23704L18.5307 0.712122C18.5894 0.645462 18.6616 0.592068 18.7425 0.555493C18.8234 0.518917 18.9112 0.5 19 0.5C19.0889 0.5 19.1766 0.518917 19.2576 0.555493C19.3385 0.592068 19.4107 0.645462 19.4694 0.712122L20.8126 2.23704C20.8922 2.32734 20.944 2.43866 20.9618 2.55766C20.9797 2.67667 20.9628 2.79829 20.9133 2.90796C20.8638 3.01763 20.7837 3.11068 20.6826 3.17597C20.5815 3.24125 20.4637 3.27599 20.3434 3.27602C20.2545 3.27616 20.1667 3.25731 20.0857 3.22074C20.0047 3.18417 19.9325 3.13072 19.8738 3.06397L19.6256 2.7821V5.70036C19.6256 5.86625 19.5597 6.02535 19.4423 6.14266C19.325 6.25997 19.1659 6.32587 19 6.32587C18.8341 6.32587 18.675 6.25997 18.5577 6.14266C18.4404 6.02535 18.3745 5.86625 18.3745 5.70036V2.7821L18.1263 3.06397C18.0165 3.18803 17.862 3.26349 17.6967 3.27378C17.5314 3.28408 17.3687 3.22837 17.2444 3.11889C17.1201 3.00941 17.0443 2.85508 17.0336 2.68978C17.0229 2.52447 17.0783 2.3616 17.1875 2.23704ZM5.38293 6.54667C5.37727 6.45803 5.39057 6.3692 5.42193 6.2861C5.45328 6.203 5.50199 6.12753 5.5648 6.06472C5.62761 6.00191 5.70307 5.95321 5.78618 5.92185C5.86928 5.89049 5.95811 5.87719 6.04675 5.88285L8.07482 6.01139C8.1568 6.01659 8.23696 6.03788 8.31071 6.07405C8.38446 6.11022 8.45036 6.16057 8.50466 6.22221C8.55895 6.28385 8.60057 6.35558 8.62714 6.43331C8.65372 6.51104 8.66472 6.59324 8.65952 6.67522C8.63763 7.02003 8.34074 7.2822 7.9957 7.25992L7.62078 7.23615L9.68544 9.30081C9.74354 9.35888 9.78962 9.42783 9.82106 9.50372C9.8525 9.57961 9.86869 9.66094 9.86869 9.74309C9.86869 9.82523 9.8525 9.90657 9.82106 9.98246C9.78962 10.0583 9.74354 10.1273 9.68544 10.1854C9.56331 10.3075 9.40326 10.3686 9.24313 10.3686C9.083 10.3686 8.92294 10.3075 8.80081 10.1854L6.73615 8.1207L6.75992 8.49554C6.76534 8.5809 6.75319 8.66647 6.72423 8.74696C6.69527 8.82744 6.65012 8.90113 6.59155 8.96347C6.53298 9.02581 6.46225 9.07548 6.38373 9.1094C6.30521 9.14332 6.22056 9.16078 6.13503 9.1607C5.97608 9.16054 5.82315 9.09987 5.70731 8.99102C5.59148 8.88217 5.52143 8.7333 5.51139 8.57467L5.38285 6.5466L5.38293 6.54667ZM20.8126 36.763L19.4694 38.2879C19.4107 38.3545 19.3385 38.4079 19.2576 38.4445C19.1766 38.4811 19.0889 38.5 19 38.5C18.9112 38.5 18.8234 38.4811 18.7425 38.4445C18.6616 38.4079 18.5894 38.3545 18.5307 38.2879L17.1875 36.763C17.0778 36.6385 17.0221 36.4755 17.0326 36.3099C17.0431 36.1444 17.1189 35.9898 17.2434 35.8801C17.3679 35.7705 17.5309 35.7148 17.6965 35.7253C17.862 35.7358 18.0166 35.8116 18.1263 35.9361L18.3745 36.218V33.2997C18.3745 33.1338 18.4404 32.9747 18.5577 32.8574C18.675 32.7401 18.8341 32.6742 19 32.6742C19.1659 32.6742 19.325 32.7401 19.4423 32.8574C19.5597 32.9747 19.6256 33.1338 19.6256 33.2997V36.218L19.8738 35.9361C19.928 35.8742 19.9939 35.8237 20.0677 35.7873C20.1415 35.751 20.2218 35.7295 20.3039 35.7243C20.3859 35.7189 20.4683 35.7299 20.5461 35.7565C20.624 35.783 20.6958 35.8247 20.7576 35.8791C20.8193 35.9334 20.8697 35.9994 20.9059 36.0733C20.9421 36.1472 20.9633 36.2275 20.9685 36.3096C20.9736 36.3917 20.9624 36.474 20.9357 36.5518C20.909 36.6296 20.8671 36.7013 20.8126 36.763ZM32.6171 32.4533C32.6228 32.542 32.6095 32.6308 32.5782 32.7139C32.5468 32.797 32.4981 32.8724 32.4353 32.9352C32.3725 32.9981 32.297 33.0468 32.214 33.0781C32.1309 33.1095 32.042 33.1228 31.9534 33.1172L29.9253 32.9886C29.8434 32.9834 29.7632 32.9621 29.6894 32.9259C29.6157 32.8898 29.5498 32.8394 29.4955 32.7778C29.4412 32.7161 29.3996 32.6444 29.373 32.5667C29.3464 32.489 29.3354 32.4068 29.3406 32.3248C29.3458 32.2428 29.3671 32.1626 29.4033 32.0889C29.4394 32.0151 29.4898 31.9492 29.5514 31.8949C29.6131 31.8406 29.6848 31.799 29.7625 31.7724C29.8403 31.7459 29.9225 31.7349 30.0045 31.7401L30.3793 31.7639L28.3146 29.6992C28.2565 29.6411 28.2105 29.5722 28.179 29.4963C28.1476 29.4204 28.1314 29.3391 28.1314 29.2569C28.1314 29.1748 28.1476 29.0934 28.179 29.0175C28.2105 28.9417 28.2565 28.8727 28.3146 28.8146C28.4319 28.6973 28.591 28.6315 28.7569 28.6315C28.9228 28.6315 29.0819 28.6973 29.1992 28.8146L31.2639 30.8793L31.2401 30.5045C31.2296 30.3389 31.2853 30.1759 31.3949 30.0515C31.5046 29.927 31.6592 29.8511 31.8248 29.8406C31.9903 29.8301 32.1533 29.8858 32.2778 29.9955C32.4023 30.1052 32.4781 30.2598 32.4886 30.4253L32.6171 32.4534V32.4533ZM38 19.5C38 19.5888 37.9811 19.6766 37.9445 19.7576C37.908 19.8385 37.8546 19.9107 37.788 19.9694L36.263 21.3125C36.149 21.4133 36.002 21.4688 35.8498 21.4687C35.7227 21.4687 35.5986 21.43 35.4941 21.3578C35.3895 21.2855 35.3094 21.1831 35.2645 21.0642C35.2196 20.9453 35.212 20.8156 35.2426 20.6922C35.2733 20.5689 35.3408 20.4578 35.4362 20.3738L35.718 20.1256H32.7997C32.6338 20.1256 32.4747 20.0597 32.3574 19.9423C32.2401 19.825 32.1742 19.6659 32.1742 19.5C32.1742 19.3341 32.2401 19.175 32.3574 19.0577C32.4747 18.9404 32.6338 18.8745 32.7997 18.8745H35.718L35.436 18.6262C35.3115 18.5165 35.2357 18.3619 35.2252 18.1963C35.2148 18.0308 35.2705 17.8678 35.3802 17.7433C35.4898 17.6188 35.6445 17.543 35.81 17.5325C35.9756 17.5221 36.1385 17.5778 36.263 17.6875L37.788 19.0307C37.8546 19.0894 37.908 19.1616 37.9445 19.2425C37.9811 19.3235 38 19.4112 38 19.5Z" fill="white"/>
</g>
</svg>
