<svg width="38" height="39" viewBox="0 0 38 39" fill="none" xmlns="http://www.w3.org/2000/svg">
<g id="shape">
<g id="Group">
<path id="Vector" d="M37.6107 23.5942C37.2493 22.9906 35.7655 21.1983 31.848 23.4797L24.9411 27.5027C24.5948 27.7043 24.2427 27.8467 23.8751 27.9317C24.0114 27.7133 24.1181 27.4662 24.1913 27.1928C24.5443 25.875 23.7611 24.4992 22.4082 24.0605C22.3819 24.052 22.3551 24.0453 22.328 24.0404C20.3428 23.6824 18.3835 22.974 16.8092 22.4049C16.2624 22.2071 15.7459 22.0204 15.3066 21.878C13.5385 21.3044 11.9398 22.0144 10.6093 22.7848L5.47068 25.7599L4.98619 24.9039C4.77229 24.5259 4.42309 24.2537 4.0028 24.1371C3.58251 24.0206 3.14283 24.0742 2.76506 24.2881L0.827162 25.3851C0.449159 25.599 0.176881 25.9482 0.0603541 26.3684C-0.0561725 26.7887 -0.00246758 27.2283 0.211433 27.6062L5.90882 37.6731C6.12265 38.051 6.47192 38.3233 6.89221 38.4398C7.03755 38.4801 7.18518 38.5 7.33181 38.5C7.60915 38.5 7.88273 38.4287 8.12995 38.2888L10.0679 37.192C10.4459 36.9781 10.7181 36.6289 10.8346 36.2086C10.9511 35.7883 10.8974 35.3487 10.6835 34.9709L10.0961 33.9329L11.2675 33.2567L20.1139 35.6271C20.6135 35.7611 21.1039 35.8279 21.5838 35.8279C22.5406 35.8279 23.4552 35.5621 24.3159 35.0322L36.8503 27.314C37.9929 26.6105 38.3554 24.8375 37.6107 23.5942ZM9.65338 35.8812C9.63953 35.9323 9.61568 35.9803 9.5832 36.0221C9.55072 36.064 9.51025 36.099 9.46415 36.1252L7.52618 37.222C7.3358 37.3299 7.08351 37.2601 6.97549 37.0694L1.27818 27.0025C1.25212 26.9563 1.23548 26.9055 1.22921 26.8528C1.22294 26.8002 1.22716 26.7469 1.24163 26.6959C1.25546 26.6447 1.27931 26.5968 1.31179 26.5549C1.34428 26.513 1.38475 26.478 1.43086 26.4519L3.36876 25.3551C3.4286 25.3212 3.49624 25.3033 3.56504 25.3034C3.60174 25.3034 3.63882 25.3084 3.67536 25.3186C3.72651 25.3324 3.77442 25.3562 3.8163 25.3887C3.85818 25.4212 3.89321 25.4616 3.91937 25.5077H3.91945L9.61684 35.5747C9.64289 35.6208 9.65953 35.6716 9.6658 35.7243C9.67207 35.7769 9.66785 35.8302 9.65338 35.8812ZM36.2077 26.2701L23.6732 33.9883C22.6793 34.6003 21.5884 34.7532 20.4312 34.443L11.3396 32.0069C11.1826 31.9649 11.0154 31.987 10.8746 32.0681L9.49242 32.8661L6.07446 26.8269L11.2235 23.8457C12.3753 23.1788 13.6216 22.62 14.9284 23.044C15.3482 23.1802 15.8322 23.3551 16.3925 23.5577C17.9987 24.1384 19.9949 24.8601 22.0661 25.2387C22.7879 25.4909 23.1915 26.1882 23.0073 26.8756C22.765 27.7801 22.0116 27.8926 21.412 27.8237C20.3946 27.6145 19.4277 27.3386 18.4047 27.0465C17.9197 26.9079 17.4181 26.7647 16.9025 26.6265C16.8248 26.6057 16.7437 26.6004 16.6639 26.6109C16.5841 26.6214 16.5072 26.6475 16.4375 26.6878C16.3678 26.728 16.3067 26.7816 16.2577 26.8455C16.2087 26.9093 16.1727 26.9822 16.1519 27.0599C16.1311 27.1377 16.1258 27.2188 16.1363 27.2986C16.1468 27.3784 16.1729 27.4553 16.2131 27.525C16.2534 27.5947 16.307 27.6558 16.3708 27.7048C16.4347 27.7538 16.5075 27.7898 16.5853 27.8106C17.0912 27.9461 17.5878 28.088 18.0681 28.2251C19.1224 28.5262 20.1182 28.8106 21.1905 29.0298C21.1946 29.0306 21.1986 29.0309 21.2028 29.0316C21.2069 29.0323 21.2107 29.0335 21.2149 29.0342L22.0738 29.1739C23.3582 29.3794 24.4981 29.1793 25.558 28.562L32.4649 24.539C34.4531 23.381 35.9838 23.2633 36.5591 24.2241C36.9557 24.8862 36.7783 25.9188 36.2077 26.2701ZM3.93101 27.2994C3.94416 27.3893 3.93946 27.4809 3.9172 27.569C3.89494 27.6571 3.85554 27.7399 3.80126 27.8128C3.74698 27.8857 3.67888 27.9471 3.60085 27.9937C3.52281 28.0402 3.43637 28.0709 3.34647 28.0841C3.25656 28.0972 3.16494 28.0925 3.07684 28.0703C2.98875 28.048 2.9059 28.0086 2.83303 27.9543C2.76016 27.9001 2.6987 27.832 2.65215 27.7539C2.6056 27.6759 2.57487 27.5894 2.56173 27.4995C2.53727 27.3189 2.58504 27.136 2.69469 26.9904C2.80433 26.8448 2.96699 26.7483 3.14733 26.722C3.32767 26.6956 3.51113 26.7415 3.65786 26.8496C3.80459 26.9577 3.90275 27.1193 3.93101 27.2994ZM25.4727 24.2096C25.5302 24.2793 25.6024 24.3354 25.6841 24.3739C25.7658 24.4124 25.855 24.4324 25.9454 24.4324C26.0357 24.4324 26.125 24.4124 26.2067 24.3739C26.2884 24.3354 26.3606 24.2793 26.4181 24.2096L35.0692 13.7257C35.1473 13.631 35.1952 13.515 35.2067 13.3928C35.2181 13.2705 35.1926 13.1477 35.1335 13.0401L32.2497 7.7982C32.1968 7.70205 32.1191 7.62187 32.0246 7.56602C31.9302 7.51018 31.8224 7.48072 31.7127 7.48072H20.1782C20.0684 7.48072 19.9607 7.51018 19.8662 7.56602C19.7718 7.62187 19.694 7.70205 19.6411 7.7982L16.7574 13.0401C16.6983 13.1477 16.6728 13.2705 16.6843 13.3928C16.6957 13.515 16.7436 13.631 16.8217 13.7257L25.4727 24.2096ZM29.2962 13.9485H33.2961L27.2963 21.2195L29.2962 13.9485ZM25.9454 21.5084L23.866 13.9484H28.0248L25.9454 21.5084ZM24.0985 12.7227L25.9454 9.36521L27.7924 12.7227H24.0985ZM26.9821 8.7065H30.676L28.8291 12.064L26.9821 8.7065ZM23.0618 12.064L21.2149 8.7065H24.9088L23.0618 12.064ZM22.0251 12.7227H18.3312L20.1782 9.36529L22.0251 12.7227ZM22.5947 13.9485L24.5946 21.2195L18.5949 13.9485H22.5947ZM33.5598 12.7227H29.8658L31.7128 9.36521L33.5598 12.7227ZM25.3325 3.51445V1.11289C25.3325 0.950345 25.3971 0.794453 25.512 0.679513C25.627 0.564573 25.7829 0.5 25.9454 0.5C26.108 0.5 26.2639 0.564573 26.3788 0.679513C26.4937 0.794453 26.5583 0.950345 26.5583 1.11289V3.51445C26.5583 3.677 26.4937 3.83289 26.3788 3.94783C26.2639 4.06277 26.108 4.12734 25.9454 4.12734C25.7829 4.12734 25.627 4.06277 25.512 3.94783C25.3971 3.83289 25.3325 3.677 25.3325 3.51445ZM19.3034 3.05692C19.2221 2.91615 19.2001 2.74886 19.2422 2.59186C19.2842 2.43485 19.387 2.30098 19.5277 2.21971C19.6685 2.13846 19.8358 2.11644 19.9928 2.15851C20.1498 2.20057 20.2836 2.30328 20.3649 2.44403L21.5657 4.52381C21.6195 4.61693 21.6478 4.72257 21.6478 4.83012C21.6479 4.93766 21.6196 5.04332 21.5659 5.13649C21.5122 5.22965 21.4349 5.30704 21.3418 5.36088C21.2487 5.41472 21.1431 5.44312 21.0355 5.44322C20.9278 5.44335 20.822 5.41507 20.7287 5.36126C20.6354 5.30745 20.558 5.22999 20.5041 5.1367L19.3034 3.05692ZM30.3253 4.52373L31.5261 2.44395C31.5663 2.37423 31.6198 2.31311 31.6837 2.2641C31.7475 2.21509 31.8204 2.17914 31.8982 2.15831C31.9759 2.13748 32.057 2.13217 32.1368 2.14269C32.2166 2.15321 32.2936 2.17936 32.3633 2.21963C32.504 2.30091 32.6068 2.43477 32.6488 2.59178C32.6909 2.74879 32.6689 2.91607 32.5876 3.05684L31.3869 5.13662C31.3466 5.20635 31.2931 5.26746 31.2292 5.31647C31.1654 5.36548 31.0925 5.40143 31.0147 5.42226C30.937 5.4431 30.8559 5.4484 30.7761 5.43788C30.6963 5.42736 30.6193 5.40122 30.5496 5.36094C30.4799 5.32071 30.4188 5.26713 30.3698 5.20328C30.3208 5.13943 30.2849 5.06655 30.2641 4.9888C30.2432 4.91106 30.2379 4.82997 30.2484 4.75017C30.2589 4.67037 30.2851 4.59343 30.3253 4.52373Z" fill="white"/>
</g>
</g>
</svg>
